:SAMPLES-PER-SECOND 30
:FRAME-RANGE 1-1390
:FULLY-SPECIFIED
:DEGREES
1304
root  -87.4603 37.4391 32.207 4.44882 55.5867 -0.204865
RightUpLeg  4.29091 -9.18429 2.82069
RightLeg  18.3952 -1.55863 -0.199179
RightFoot  -24.4919 -0.106809 0.513119
RightToes  6.35937e-011 1.2921e-014 -6.02303e-014
Spine  0.463596 1.92313 9.6703
Spine1  8.55703 2.93659 -4.91881
HEad  4.00471 51.4748 -12.4417
LeftShoulder1  1.23427 -1.42832 -19.8502
LeftArm  -3.1577 9.89629 -53.3758
LeftForeArm  43.2189 4.11916 -12.6221
LeftHand  -0.0347455 5.48884 2.60963
RightShoulder  1.96726 3.5911 22.3352
RightArm  -23.1878 9.7476 47.3687
RightForeArm  69.5184 -5.42038 4.09629
RightHand  0.210048 -7.1495 -15.118
LeftUpLeg  -29.5664 -7.63092 -5.41619
LeftLeg  3.57708 14.2414 2.88684
LeftFoot  -3.14964 0.207892 -2.63897
LeftToes  4.52251e-011 4.07896e-011 -5.42348e-012
1305
root  -86.5368 37.2879 33.1113 4.46451 54.5934 -0.440002
RightUpLeg  5.6952 -9.26635 2.74884
RightLeg  19.455 0.0880572 -0.0125308
RightFoot  -24.7368 -0.0276096 1.19259
RightToes  6.35937e-011 1.2921e-014 -6.02303e-014
Spine  -0.0765954 2.51333 9.67034
Spine1  8.98217 3.81552 -5.79542
HEad  2.65593 51.6458 -13.2783
LeftShoulder1  1.10247 -0.89885 -20.007
LeftArm  -3.25734 10.797 -52.9629
LeftForeArm  42.7844 4.01867 -12.6031
LeftHand  -0.0327752 5.29835 2.74672
RightShoulder  2.04273 3.90749 22.1242
RightArm  -23.1698 10.4112 48.9909
RightForeArm  69.4207 -5.40899 4.00484
RightHand  0.327277 -7.87038 -16.1905
LeftUpLeg  -29.985 -7.16767 -5.14712
LeftLeg  6.87246 15.8802 3.54219
LeftFoot  -3.10843 0.104262 -1.18882
LeftToes  4.52251e-011 4.07896e-011 -5.42348e-012
1306
root  -85.5815 37.282 34.003 5.04147 53.5213 0.0280762
RightUpLeg  7.02339 -8.28932 2.28732
RightLeg  20.5777 0.955389 0.181251
RightFoot  -23.8654 0.118401 2.55304
RightToes  6.35937e-011 1.2921e-014 -6.02303e-014
Spine  -0.453804 2.91203 8.87997
Spine1  9.44946 4.55548 -6.62641
HEad  0.844677 52.0213 -14.3003
LeftShoulder1  1.00696 -0.527789 -20.0548
LeftArm  -3.6503 12.3334 -52.6339
LeftForeArm  42.2025 3.37774 -12.4751
LeftHand  -0.0350367 5.32204 2.72766
RightShoulder  2.09001 4.08262 22.0946
RightArm  -22.8482 11.174 50.7481
RightForeArm  70.8408 -5.35909 4.03799
RightHand  0.237255 -7.27316 -15.7571
LeftUpLeg  -30.0229 -7.23199 -5.13673
LeftLeg  9.4119 17.0603 4.53355
LeftFoot  1.5282 -0.154562 1.28861
LeftToes  4.52251e-011 4.07896e-011 -5.42348e-012
1307
root  -84.5897 37.2644 34.8998 6.40927 53.3715 1.4166
RightUpLeg  7.03939 -7.50568 1.06751
RightLeg  24.1853 2.42868 0.971999
RightFoot  -22.7097 0.299909 4.55859
RightToes  6.35937e-011 1.2921e-014 -6.02303e-014
Spine  -0.412262 2.83349 7.08703
Spine1  9.08863 4.52183 -6.83436
HEad  -0.99416 52.232 -15.3116
LeftShoulder1  0.948746 -0.2576 -20.4372
LeftArm  -3.67164 13.5515 -51.9431
LeftForeArm  41.2257 3.11983 -12.4899
LeftHand  -0.0317071 5.11254 2.83147
RightShoulder  2.14757 4.17865 22.5299
RightArm  -22.2929 11.8645 52.0381
RightForeArm  71.0058 -5.38605 4.23989
RightHand  0.228454 -7.17489 -16.0143
LeftUpLeg  -30.5717 -7.90343 -5.46336
LeftLeg  13.6627 17.589 5.52708
LeftFoot  2.58738 -0.184121 1.37911
LeftToes  4.52251e-011 4.07896e-011 -5.42348e-012
1308
root  -83.5761 37.2806 35.7526 6.64789 54.3935 1.67276
RightUpLeg  5.83794 -8.7824 -0.0959917
RightLeg  30.5831 5.41875 3.21612
RightFoot  -19.6262 0.389056 7.203
RightToes  6.35937e-011 1.2921e-014 -6.02303e-014
Spine  -0.382261 2.52194 6.40521
Spine1  8.80197 4.13969 -6.82533
HEad  -1.9478 51.9155 -15.7144
LeftShoulder1  1.04194 -0.618077 -20.3631
LeftArm  -4.23023 13.8773 -52.2726
LeftForeArm  41.0539 3.96498 -12.3624
LeftHand  -0.0314496 5.11858 2.72362
RightShoulder  2.14649 4.19308 22.4561
RightArm  -22.5432 11.4245 53.4911
RightForeArm  70.9239 -5.35687 4.04431
RightHand  0.220954 -7.12536 -15.9684
LeftUpLeg  -30.4882 -7.42009 -5.92599
LeftLeg  17.6154 16.2394 6.01956
LeftFoot  1.52107 -0.0617162 0.465956
LeftToes  4.52251e-011 4.07896e-011 -5.42348e-012
1309
root  -82.589 37.3147 36.5348 6.36081 55.2404 1.4787
RightUpLeg  3.14108 -10.2385 -1.713
RightLeg  39.3406 8.73755 7.34537
RightFoot  -14.3344 0.181944 10.6699
RightToes  6.35937e-011 1.2921e-014 -6.02303e-014
Spine  -0.525785 2.46313 6.06649
Spine1  9.14658 4.06515 -6.89564
HEad  -1.37898 51.2612 -14.9003
LeftShoulder1  1.11913 -0.974819 -19.9255
LeftArm  -4.97773 13.4882 -53.3561
LeftForeArm  42.4628 4.97936 -12.1312
LeftHand  -0.0299901 5.1734 2.17791
RightShoulder  2.08062 4.05603 22.067
RightArm  -23.0573 10.5136 54.7818
RightForeArm  70.8921 -5.3109 3.75986
RightHand  0.174395 -6.8319 -15.4811
LeftUpLeg  -29.8739 -7.14412 -6.41256
LeftLeg  20.4821 14.6925 6.30488
LeftFoot  0.978349 -0.401484 3.66412
LeftToes  4.52251e-011 4.07896e-011 -5.42348e-012
